<svg xmlns="http://www.w3.org/2000/svg" width="348" height="37.005" viewBox="0 0 348 37.005">
  <g id="Logo-trimarca" transform="translate(0 0.1)">
    <path id="Trazado_510" data-name="Trazado 510" d="M284.346-.1H168.3V4.793H284.277V-.1Z" transform="translate(-52.323)" fill="#38547e"/>
    <path id="Trazado_511" data-name="Trazado 511" d="M193.046,22.5,189.6,37.8c0,.069,0,.069.069.069H192.7a.067.067,0,0,0,.069-.069l1.378-6.133a.067.067,0,0,1,.069-.069h5.1c.069,0,.069,0,.069-.069l.758-2.412c0-.069,0-.069-.069-.069H194.7a.067.067,0,0,1-.069-.069l.9-3.583a.067.067,0,0,1,.069-.069h5.237a.067.067,0,0,0,.069-.069l1.171-2.412c0-.069,0-.069-.069-.069h-8.889V22.5Z" transform="translate(-58.945 -7.026)" fill="#606060"/>
    <path id="Trazado_512" data-name="Trazado 512" d="M289.426,22.4h-2.619c-.069,0-.069,0-.069.069v.138L283.5,37.836c0,.069,0,.069.069.069h2.619a.067.067,0,0,0,.069-.069l3.239-15.3C289.5,22.4,289.5,22.4,289.426,22.4Z" transform="translate(-88.138 -6.995)" fill="#606060"/>
    <path id="Trazado_513" data-name="Trazado 513" d="M223.727,28.4a3.75,3.75,0,0,0-3.1-1.309,5.067,5.067,0,0,0-3.514,1.447l1.378-5.926v-.069c0-.069,0-.138-.069-.138h-2.343c-.138,0-.276,0-.345.276l-2.274,10.268c0,.138-.069.413-.069.62a4.94,4.94,0,0,0,.62,3.032,4.3,4.3,0,0,0,3.928,1.792,6.258,6.258,0,0,0,6-4.066,3.359,3.359,0,0,1,.276-.758,1.172,1.172,0,0,0,.069-.482c0-.069.069-.276.069-.345.069-.345.069-.62.138-.965A4.378,4.378,0,0,0,223.727,28.4Zm-2.067,4.2a3.547,3.547,0,0,1-3.377,3.032,2.029,2.029,0,0,1-2.205-2.412c0-.138.069-.345.069-.551a3.758,3.758,0,0,1,3.514-3.032,2.168,2.168,0,0,1,1.654.62,2.475,2.475,0,0,1,.413,1.654A2.344,2.344,0,0,1,221.66,32.6Z" transform="translate(-66.334 -6.995)" fill="#606060"/>
    <path id="Trazado_514" data-name="Trazado 514" d="M211,22.2a2.064,2.064,0,0,0-1.93,1.654.521.521,0,0,1-.069.276,1.119,1.119,0,0,0,.345.965,1.579,1.579,0,0,0,1.034.413,2.279,2.279,0,0,0,2.067-1.654v-.276a1.119,1.119,0,0,0-.345-.965A1.777,1.777,0,0,0,211,22.2Z" transform="translate(-64.976 -6.933)" fill="#606060"/>
    <path id="Trazado_515" data-name="Trazado 515" d="M209.993,29.6h-2.55a.148.148,0,0,0-.138.138L205.1,40.006c0,.069,0,.069.069.069h2.619c.069,0,.069-.069.138-.069l2.205-10.337C210.062,29.669,210.062,29.6,209.993,29.6Z" transform="translate(-63.764 -9.233)" fill="#606060"/>
    <path id="Trazado_516" data-name="Trazado 516" d="M240.682,30.371a3.786,3.786,0,0,0-2.963-1.171,6.832,6.832,0,0,0-6.684,5.513c-.069.345-.069.62-.138.9a4.551,4.551,0,0,0,1.034,3.308,4.586,4.586,0,0,0,3.446,1.24,6.55,6.55,0,0,0,4.755-2.067c.069-.069.069-.138,0-.276L238.752,36.5c-.069-.069-.276,0-.276,0a4.067,4.067,0,0,1-2.894,1.309,2.062,2.062,0,0,1-2.205-2.205.067.067,0,0,1,.069-.069h7.442c.276,0,.345-.069.345-.276l.069-.551a9.412,9.412,0,0,0,.138-1.309A3.332,3.332,0,0,0,240.682,30.371Zm-1.792,3.1s0,.069-.138.138h-4.824c-.069,0,0-.138,0-.138a3.254,3.254,0,0,1,3.032-2.136,2.084,2.084,0,0,1,1.585.482,1.6,1.6,0,0,1,.413,1.378C238.959,33.266,238.89,33.335,238.89,33.472Z" transform="translate(-71.781 -9.109)" fill="#606060"/>
    <path id="Trazado_517" data-name="Trazado 517" d="M265.079,27.994h-3.308l.62-2.756c0-.138,0-.138-.138-.138h-2.481c-.138,0-.276.069-.276.138v.069l-.551,2.756-.482,2.481-1.034,4.617a7.594,7.594,0,0,0-.138,1.24,2.242,2.242,0,0,0,.482,1.861,3.534,3.534,0,0,0,2.343.62,6.261,6.261,0,0,0,2.136-.345c.069,0,.069-.069.069-.138l.482-2.274c0-.069-.069,0-.069,0l-.138.069a2.421,2.421,0,0,1-1.378.345c-.482,0-.758-.069-.9-.276a.772.772,0,0,1-.138-.827,1.173,1.173,0,0,1,.069-.482l.965-4.41h2.756a.067.067,0,0,0,.069-.069l1.034-2.343C265.148,27.994,265.148,27.994,265.079,27.994Z" transform="translate(-79.985 -7.834)" fill="#606060"/>
    <path id="Trazado_518" data-name="Trazado 518" d="M254.018,29.3h-2.205a3.679,3.679,0,0,0-2.688,1.24c-.965,1.034-1.309,2.688-1.654,4.135L246.3,39.912c0,.069,0,.069.138.138h2.481c.138,0,.276-.069.276-.138l1.171-5.375a8.331,8.331,0,0,1,.551-1.723,1.953,1.953,0,0,1,1.723-.9h1.034c.069,0,.069-.069.138-.138Z" transform="translate(-76.572 -9.14)" fill="#606060"/>
    <path id="Trazado_519" data-name="Trazado 519" d="M277.182,30.371a3.786,3.786,0,0,0-2.963-1.171,6.832,6.832,0,0,0-6.684,5.513c-.069.345-.069.62-.138.9a4.551,4.551,0,0,0,1.034,3.308,4.586,4.586,0,0,0,3.446,1.24,6.551,6.551,0,0,0,4.755-2.067c.069-.069.069-.138,0-.276L275.252,36.5c-.069-.069-.276,0-.276,0a4.067,4.067,0,0,1-2.894,1.309,2.062,2.062,0,0,1-2.205-2.205.068.068,0,0,1,.069-.069h7.511c.276,0,.345-.069.345-.276l.069-.551a9.416,9.416,0,0,0,.138-1.309A4.068,4.068,0,0,0,277.182,30.371Zm-1.792,3.1s0,.069-.138.138h-4.824c-.069,0,0-.138,0-.138a3.254,3.254,0,0,1,3.032-2.136,2.084,2.084,0,0,1,1.585.482,1.6,1.6,0,0,1,.413,1.378C275.39,33.266,275.39,33.335,275.39,33.472Z" transform="translate(-83.129 -9.109)" fill="#606060"/>
    <path id="Trazado_520" data-name="Trazado 520" d="M277.906,42.37a15.806,15.806,0,0,1-5.306-.758,14.906,14.906,0,0,0,3.1.276,34.7,34.7,0,0,0,12.128-2.343c6.684-2.55,11.026-6.271,11.715-9.372a2.131,2.131,0,0,0-.413-1.861c-1.378-1.723-5.444-1.861-6.684-1.861h-.482l-.069-.482s.9-.069,2.067-.069c2.481,0,5.651.345,7.1,1.93a3.168,3.168,0,0,1,.758,2.55c-.413,3.514-6.271,7.994-13.507,10.337A42.775,42.775,0,0,1,277.906,42.37Z" transform="translate(-84.749 -8.083)" fill="#606060"/>
    <path id="Trazado_521" data-name="Trazado 521" d="M128.37,18.576a1.438,1.438,0,0,0-1.24-.482,3.076,3.076,0,0,0-2.067,1.24,12.877,12.877,0,0,0-1.378,2.205,16.643,16.643,0,0,0-.62,1.792l-.9,1.93a5.905,5.905,0,0,0-.551,2.205l-.551,2.136v.62l-.62,1.309-.551.758-1.447,1.447-.758.413a.824.824,0,0,0-.551.276.875.875,0,0,1-.482.276c-.413,0-.758-.482-.827-1.654l-.207-.551-.413-.551a1.749,1.749,0,0,0-1.24-.62,1.471,1.471,0,0,0-.965.758l-1.24,2.136a1.331,1.331,0,0,1-1.034.482,19.291,19.291,0,0,1,1.309-3.17,7.41,7.41,0,0,1,.9-1.034h1.171l.551.758c.276.345.482.413.758.345s.413-.138.482-.345a1.3,1.3,0,0,0,.138-.551,3.2,3.2,0,0,0-.62-1.309,3.072,3.072,0,0,0-1.585-.9,5.529,5.529,0,0,0-1.861.138,3.564,3.564,0,0,0-.9.413.566.566,0,0,0-.345.345l-.345.345c-.276.069-.413.345-.62.62l-1.585,3.859a1.423,1.423,0,0,0,.069.965l.345.827a.776.776,0,0,0,.345.551,1.828,1.828,0,0,0,1.034.62,3.144,3.144,0,0,0,2.688-.965l1.585-1.24c.069,0,.138.069.345.345l.069.345.345.345,1.034.827a1.959,1.959,0,0,0,.827.276,2.993,2.993,0,0,0,1.654-.345l.62-.345.551-.482c.345-.138.482-.276.62-.276a.213.213,0,0,1,.138.069v.138l.345,2.756.482,2.067a3.248,3.248,0,0,0,1.034,1.309,2.236,2.236,0,0,0,1.585.551c.345-.345.345-.827,0-1.516a2.785,2.785,0,0,1-.482-1.516l-.069-4.479a6.8,6.8,0,0,1,.138-2.136,4.95,4.95,0,0,1,.9-1.654l1.171-1.654.965-1.93,2.55-6a2.742,2.742,0,0,0,.138-1.792C128.853,19.334,128.577,18.921,128.37,18.576Zm-3.377,4.755a3,3,0,0,1,.345-.9,11.272,11.272,0,0,1,1.309-1.654h.069v.345l-.138.551L125.132,25.4l-.827,1.516a.926.926,0,0,1-.345.551h-.069v-.345l.482-2.205c.069-.345.276-.62.345-.9Z" transform="translate(-33.618 -5.652)" fill="#606060"/>
    <path id="Trazado_522" data-name="Trazado 522" d="M100.483,40.5l-.551-.62a6.262,6.262,0,0,1-.758-1.93L98.9,35.745l-.551-1.792a2.064,2.064,0,0,0-1.034-.827H96l-.758.413a2.5,2.5,0,0,0-.62.551,1.531,1.531,0,0,0-.413.827l-.413.827a.776.776,0,0,1-.345-.551V34.5l-.62-1.792A6.554,6.554,0,0,0,91.8,31.335a4.8,4.8,0,0,0-1.585-.758,2.553,2.553,0,0,0-1.034,0l-.9.069a1.758,1.758,0,0,0-1.034.62l-.758,1.171c-.345.482-.551.9-.827,1.034a4.337,4.337,0,0,0-.551.758l-.827,1.792-.413.758A4.64,4.64,0,0,0,83.6,38.5a2.481,2.481,0,0,0,.345,1.516,2.879,2.879,0,0,0,1.378,1.171,3.446,3.446,0,0,0,1.861.345,1.64,1.64,0,0,0,.758-.413l.62-.345a1.34,1.34,0,0,0,.62-.965,4.372,4.372,0,0,0,0-2.688c-.138-.758-.345-1.309-.345-1.654a2.1,2.1,0,0,1,.413-1.516l.276-.345a.313.313,0,0,0,0-.345l-.138-.345c0-.138,0-.138.138-.138a.926.926,0,0,1,.965.482,2.459,2.459,0,0,1,.413,1.309l.413,4.548a1.385,1.385,0,0,0,.276.9,1.879,1.879,0,0,0,1.034.9,2.327,2.327,0,0,0,1.378-.069,2.09,2.09,0,0,0,.965-1.171l.345-1.447a3.22,3.22,0,0,1,.482-1.447l.276-.345h.069l.138.138a1.658,1.658,0,0,1,.413.551,9.948,9.948,0,0,1,.482,1.516,4.111,4.111,0,0,0,.62,1.447,2.549,2.549,0,0,0,1.378,1.034,2.16,2.16,0,0,0,1.723.138v-.069ZM86.7,35.263c.413,0,.551.413.482,1.309a12.639,12.639,0,0,1-.482,2.205.937.937,0,0,1-.413.551c-.276.138-.345.276-.551.138-.138,0-.276-.138-.276-.482a5.951,5.951,0,0,1,.069-1.034l.345-1.034A18.46,18.46,0,0,1,86.7,35.263Z" transform="translate(-25.99 -9.521)" fill="#606060"/>
    <path id="Trazado_523" data-name="Trazado 523" d="M41.633,17.988q-.62-.517-1.654-1.24a8.1,8.1,0,0,0-1.861-.827c-.482-.138-.827-.276-1.034-.345l-1.034-.138a6.115,6.115,0,0,0-1.034-.138H33.984l-2.619.413c-.413,0-.758.069-.9.345a1.977,1.977,0,0,0-.413.758,1.76,1.76,0,0,0-.069.827.956.956,0,0,0,.482.551,3.224,3.224,0,0,0,1.171.138l3.446-.413,3.17.413a2.751,2.751,0,0,1,.9.276,3.364,3.364,0,0,1,1.378,1.171,1.826,1.826,0,0,1,.62,1.654,2.232,2.232,0,0,1-.9,1.447l-1.309,1.034a2.929,2.929,0,0,1-1.447.551l.276-.62.138-.62.069-1.378.276-.62.069-.62a1.312,1.312,0,0,0-.276-.965c-.276-.482-.551-.9-.965-.965h-.758a1.4,1.4,0,0,0-.62.413,2.075,2.075,0,0,0-.482,1.378l-.62,4a1.481,1.481,0,0,1-.62.965c-.276.138-.551,0-.9-.551l-.482-.827a1.5,1.5,0,0,0-.551-.345.8.8,0,0,0-.965.413,1.034,1.034,0,0,0,0,1.24,1.992,1.992,0,0,0,.827,1.034,4.4,4.4,0,0,0,.827.413l.827.413c.345.138.413.551.345,1.034a3.533,3.533,0,0,1-.345,1.378L32.33,37.7l-.276.758a.976.976,0,0,0,.069.758,1.614,1.614,0,0,0,1.24.551,1.343,1.343,0,0,0,1.24-.551,2.459,2.459,0,0,0,.413-1.309l.138-2.067a9.9,9.9,0,0,1,.345-2.274l.482-2.205c.069-.62.138-1.378.138-1.93.069-.758.069-1.171.276-1.447a1.5,1.5,0,0,1,1.171-.9l1.93-.62A11.054,11.054,0,0,0,41.22,25.43a9.692,9.692,0,0,0,1.447-1.309,3.386,3.386,0,0,0,.551-3.239A3.773,3.773,0,0,0,41.633,17.988Z" transform="translate(-9.314 -4.788)" fill="#606060"/>
    <path id="Trazado_524" data-name="Trazado 524" d="M79.591,31.778a1.484,1.484,0,0,0-.138-.758.922.922,0,0,0-.551-.482,3.459,3.459,0,0,0-.827-.138,1.468,1.468,0,0,0-.827.276l-.62.138a3.244,3.244,0,0,1-.345.138l-.276.276-.345.069-.482.9-.207.138a.213.213,0,0,0-.069.138l-.138.413c-.276.345-.413.551-.413.758v.827a5.062,5.062,0,0,0,.62,1.792l1.034,1.516a2.658,2.658,0,0,1,.551,1.723c-.069.345-.413.62-.965.827l-1.309.069-.827-.276a.9.9,0,0,0-.758.138v.62l.758,1.24c.138.276.551.413,1.171.482a7.092,7.092,0,0,0,2.756-.276,2.884,2.884,0,0,0,1.24-.758,2.329,2.329,0,0,0,.62-1.309,3.156,3.156,0,0,0-.9-2.55l-.62-.965a1.933,1.933,0,0,1-.482-1.309,2.026,2.026,0,0,1,.413-1.654c.138-.345.551-.62,1.171-1.034A1.291,1.291,0,0,0,79.591,31.778Z" transform="translate(-22.602 -9.482)" fill="#606060"/>
    <path id="Trazado_525" data-name="Trazado 525" d="M65.3,33.243a.737.737,0,0,0,0-.551c-.069-.413-.138-.551-.345-.62a3.951,3.951,0,0,0-2.067-.345,2.531,2.531,0,0,0-1.378.758l-1.24,1.171L59.3,34.9a2.639,2.639,0,0,1-1.171,1.034l-.276-.62a7.177,7.177,0,0,1-.069-.758,1.406,1.406,0,0,0-.551-1.034,1.605,1.605,0,0,0-1.034-.482,1.58,1.58,0,0,0-1.034.138l-.482.482-.413.482-.9.965c-.345.345-.965,1.171-1.861,2.205L50.14,38.963c-.482.551-.9.827-1.309.62-.413-.069-.62-.413-.827-.965a1.3,1.3,0,0,1,.345-1.24L51.242,36l1.309-.9.62-.551a2.674,2.674,0,0,0-.413-1.723,5.6,5.6,0,0,0-1.24-1.309A3.083,3.083,0,0,0,49.8,30.9,3.275,3.275,0,0,0,48,31.313a5.428,5.428,0,0,0-2.274,3.032l-.276.758-.069.138-.138.069H44.42l-.482.069a.4.4,0,0,0-.138.345,1.484,1.484,0,0,0,.138.758l.551.62.482.413a1.554,1.554,0,0,1,.345.827l.413.827a4.236,4.236,0,0,0,1.861,2.343,3.747,3.747,0,0,0,2.688.345,4.021,4.021,0,0,0,1.93-1.309l1.654-1.93A6.95,6.95,0,0,1,55.722,36.9L56,38.342l.069,1.034L56,40.341a3.194,3.194,0,0,0,.138.965,1.837,1.837,0,0,0,1.034.9,1.416,1.416,0,0,0,1.309-.62l.758-1.723,1.034-1.447.9-1.861a5.773,5.773,0,0,1,1.171-1.723,3.1,3.1,0,0,1,1.309-.965l1.171-.482Zm-14.4,0a1.432,1.432,0,0,1,0,.551c0,.345-.276.551-.62.827l-1.654,1.034a2.576,2.576,0,0,1-.758.276h-.138c-.069,0-.069,0-.069-.138l.069-.345A.6.6,0,0,1,48,34.966l.758-1.034c.345-.482.551-.9.9-1.034.413-.345.827-.413,1.171-.069C50.76,32.83,50.829,33.105,50.9,33.243Z" transform="translate(-13.617 -9.638)" fill="#606060"/>
    <path id="Trazado_526" data-name="Trazado 526" d="M382.9,32.706c.276,3.239,1.93,4.755,5.1,4.755a4.952,4.952,0,0,0,5.237-4.135,7.485,7.485,0,0,0,.069-.9v-.413A5.373,5.373,0,0,0,392,28.364a4.406,4.406,0,0,0-3.377-1.447,3.581,3.581,0,0,0-3.1,1.447V22.438a.148.148,0,0,0-.138-.138h-2.274a.148.148,0,0,0-.138.138V32.706Zm5.1-3.377a2.677,2.677,0,0,1,2.688,2.825A2.57,2.57,0,0,1,388,34.98a2.519,2.519,0,0,1-2.619-2.825A2.586,2.586,0,0,1,388,29.329Z" transform="translate(-119.04 -6.964)" fill="#606060"/>
    <path id="Trazado_527" data-name="Trazado 527" d="M399.7,36.771a.148.148,0,0,0,.138.138h2.205a.148.148,0,0,0,.138-.138V22.438a.148.148,0,0,0-.138-.138h-2.205a.148.148,0,0,0-.138.138Z" transform="translate(-124.263 -6.964)" fill="#606060"/>
    <path id="Trazado_528" data-name="Trazado 528" d="M429.123,29.2h-2.274c-.069,0-.138.069-.276.138L424.3,35.747c0,.069-.069.069-.069,0l-2.274-6.409c0-.069-.138-.138-.276-.138h-2.343a.148.148,0,0,0-.138.138v.069l3.652,9.441c0,.069.138.138.276.138h2.343c.069,0,.138-.069.276-.138l3.583-9.51C429.261,29.269,429.261,29.2,429.123,29.2Z" transform="translate(-130.326 -9.109)" fill="#606060"/>
    <path id="Trazado_529" data-name="Trazado 529" d="M398.834,26.817a5.7,5.7,0,0,0-3.79,1.378,4.887,4.887,0,0,0-1.378,3.721,4.887,4.887,0,0,0,1.378,3.721,5.448,5.448,0,0,0,3.79,1.378,4.88,4.88,0,0,0,3.928-1.861c.069-.069.069-.138,0-.276l-1.585-1.24c-.069-.069-.138-.069-.276,0a2.7,2.7,0,0,1-2.343,1.24,2.248,2.248,0,0,1-2.343-2.205h6.96a.148.148,0,0,0,.138-.138v-.482A5.614,5.614,0,0,0,402,28.126,4.2,4.2,0,0,0,398.834,26.817Zm1.861,4.135h-4.479a2.218,2.218,0,0,1,2.274-2.136,1.893,1.893,0,0,1,2.205,2.136Zm16.056-3.928h-2.205a.148.148,0,0,0-.138.138v9.51a.148.148,0,0,0,.138.138h2.205a.148.148,0,0,0,.138-.138v-9.51A.148.148,0,0,0,416.751,27.024Zm19.433-1.792h1.723a1.562,1.562,0,0,0,.276-.069l2.756-2.756c.069-.069,0-.069-.069-.069h-2.756a.241.241,0,0,0-.069.138l-1.861,2.756C436.115,25.163,436.115,25.232,436.184,25.232Zm-63.4,1.585a5.3,5.3,0,0,0-3.928,1.516c0,.069-.069.138,0,.138l1.172,1.171c.069.069.138.069.276,0a3.358,3.358,0,0,1,2.274-.9c1.309,0,2.136.551,2.136,1.792v.138h-.551a13.237,13.237,0,0,0-4,.482,2.889,2.889,0,0,0-2.067,2.963c0,1.93,1.654,2.963,3.446,2.963a3.612,3.612,0,0,0,3.1-1.516v.482c.069.413.276.827.827.827h1.309a.148.148,0,0,0,.138-.138V31.3a5.857,5.857,0,0,0-.482-2.688C375.956,27.575,374.784,26.817,372.786,26.817Zm1.723,6.133c0,1.309-.758,2.136-2.343,2.205a1.058,1.058,0,0,1-.9-.345,1,1,0,0,1-.482-.9c0-.62.413-.965,1.172-1.24a14.532,14.532,0,0,1,2.274-.276h.482v.482h-.207ZM429.224,22.2a1.453,1.453,0,1,0,0,2.894,1.452,1.452,0,0,0,1.585-1.447A1.491,1.491,0,0,0,429.224,22.2Zm22.534,5.789A3.2,3.2,0,0,0,449,26.748a3.123,3.123,0,0,0-2.963,1.654v-1.24a.148.148,0,0,0-.138-.138h-2.136a.148.148,0,0,0-.138.138v9.51a.148.148,0,0,0,.138.138h2.205a.148.148,0,0,0,.138-.138V31.434a2.114,2.114,0,0,1,2.205-2.412,1.4,1.4,0,0,1,1.447.965,4.222,4.222,0,0,1,.276,1.792v4.893a.148.148,0,0,0,.138.138h2.205a.148.148,0,0,0,.138-.138v-6A5.092,5.092,0,0,0,451.758,27.989Zm-14.816-1.171a5.054,5.054,0,0,0-3.583,1.378,4.887,4.887,0,0,0-1.378,3.721,4.887,4.887,0,0,0,1.378,3.721,5.054,5.054,0,0,0,3.583,1.378,4.939,4.939,0,0,0,3.583-1.378,4.887,4.887,0,0,0,1.378-3.721,4.887,4.887,0,0,0-1.378-3.721A5.113,5.113,0,0,0,436.942,26.817Zm0,7.925c-1.723,0-2.481-1.378-2.481-2.825s.758-2.825,2.481-2.825c1.792,0,2.481,1.378,2.481,2.825A2.414,2.414,0,0,1,436.942,34.742ZM415.58,22.2a1.453,1.453,0,1,0,0,2.894,1.452,1.452,0,0,0,1.585-1.447A1.491,1.491,0,0,0,415.58,22.2ZM430.4,27.024H428.19a.148.148,0,0,0-.138.138v9.51a.148.148,0,0,0,.138.138H430.4a.148.148,0,0,0,.138-.138v-9.51A.148.148,0,0,0,430.4,27.024Zm-6.546,4.066c-.62-.138-1.309-.276-1.792-.413s-.758-.413-.758-.827a.865.865,0,0,1,.413-.758,1.954,1.954,0,0,1,.9-.276,2.1,2.1,0,0,1,1.792.9c.069.069.138.069.276,0l1.447-1.309c.069-.069.069-.138,0-.276a4.471,4.471,0,0,0-3.446-1.378,5.091,5.091,0,0,0-2.688.758,2.733,2.733,0,0,0-1.24,2.412c0,1.861,1.378,2.412,2.687,2.756a11.2,11.2,0,0,1,1.792.482c.482.138.827.413.827.9a1.278,1.278,0,0,1-.482.827,3.311,3.311,0,0,1-1.034.276,3.183,3.183,0,0,1-2.205-1.034c-.069-.069-.138-.069-.276,0l-1.378,1.24-.069.069c-.069.069-.069.138,0,.276l.276.276a4.9,4.9,0,0,0,3.514,1.24,6.043,6.043,0,0,0,2.894-.758,2.7,2.7,0,0,0,1.378-2.412C426.536,31.985,425.158,31.434,423.849,31.09Z" transform="translate(-114.439 -6.933)" fill="#606060"/>
    <path id="Trazado_530" data-name="Trazado 530" d="M357.309,24.412a3.649,3.649,0,0,1,3.1,1.723c.069.138.138.138.345.069l1.585-1.171a.24.24,0,0,0,.069-.345,5.675,5.675,0,0,0-3.652-2.619,6.328,6.328,0,0,0-1.24-.069,6.111,6.111,0,0,0-4.824,2.136,7.823,7.823,0,0,0-1.792,5.513,7.756,7.756,0,0,0,1.792,5.444,6.5,6.5,0,0,0,4.824,2.067,5.39,5.39,0,0,0,4.686-2.274.308.308,0,0,0,0-.345l-1.723-1.378c-.069-.069-.138,0-.276,0a3.009,3.009,0,0,1-2.687,1.447c-2.619,0-4.066-2.205-4.066-5.237C353.243,26.893,354.552,24.412,357.309,24.412Z" transform="translate(-109.092 -6.871)" fill="#606060"/>
    <path id="Trazado_531" data-name="Trazado 531" d="M0,2.412V0H115.977V4.824H2.481A2.372,2.372,0,0,1,0,2.412Z" transform="translate(0 -0.031)" fill="#00b0ea"/>
    <path id="Trazado_532" data-name="Trazado 532" d="M452.677,2.412V0H336.7V4.824H450.265A2.441,2.441,0,0,0,452.677,2.412Z" transform="translate(-104.677 -0.031)" fill="#bd2a37"/>
  </g>
</svg>
